<svg xmlns="http://www.w3.org/2000/svg" version="1.1" xmlns:xlink="http://www.w3.org/1999/xlink" width="2000" height="91" viewBox="0 0 2000 91"><svg xml:space="preserve" width="2000" height="91" data-version="2" data-id="lg_5lAdLV0gpLVujzcnUC" viewBox="0 0 555 91" x="0" y="0"><rect width="100%" height="100%" fill="transparent"></rect><path fill="#1e1e1e" d="M75.156 60.512c-2.223 0-4.03 1.807-4.03 4.03s1.807 4.03 4.03 4.03c2.221 0 4.03-1.808 4.03-4.03s-1.809-4.03-4.03-4.03m-31.233-20.15c1.666 0 3.023-1.356 3.023-3.023s-1.357-3.022-3.023-3.022c-1.667 0-3.022 1.355-3.022 3.022s1.355 3.023 3.022 3.023m4.03 18.134c-3.889 0-7.052 3.164-7.052 7.053s3.163 7.052 7.052 7.052 7.053-3.163 7.053-7.052-3.164-7.053-7.053-7.053M10.676 76.633c-1.112 0-2.016.903-2.016 2.014s.904 2.016 2.015 2.016a2.017 2.017 0 0 0 0-4.03m11.082-34.256a3.026 3.026 0 0 0-3.022 3.023c0 1.667 1.355 3.023 3.022 3.023s3.023-1.356 3.023-3.023a3.026 3.026 0 0 0-3.023-3.022"></path><path fill="#1e1e1e" d="M94.333 54.337c-7.37-.962-13.008-7.203-13.13-14.732a17.037 17.037 0 0 1-5.04.757c-9.444 0-17.127-7.684-17.127-17.128 0-4.23 1.569-8.29 4.362-11.413a11.095 11.095 0 0 1-7.967-7.705C32.055 3.314 12.69 22.103 12.69 45.4c0 22.777 18.53 41.308 41.307 41.308 19.4 0 36.187-13.548 40.335-32.37M43.923 32.3c2.778 0 5.038 2.26 5.038 5.038s-2.26 5.038-5.038 5.038-5.038-2.26-5.038-5.038 2.26-5.038 5.038-5.038M21.758 50.436c-2.778 0-5.038-2.26-5.038-5.037s2.26-5.038 5.038-5.038 5.038 2.26 5.038 5.038-2.26 5.037-5.038 5.037m10.075 9.068a2.015 2.015 0 1 1 0-4.03 2.015 2.015 0 0 1 0 4.03m0-32.24a2.015 2.015 0 1 1 0-4.03 2.015 2.015 0 0 1 0 4.03m16.12 47.353c-5 0-9.067-4.068-9.067-9.068s4.067-9.067 9.067-9.067 9.068 4.067 9.068 9.067-4.068 9.068-9.068 9.068m14.105 3.022a2.015 2.015 0 1 1 0-4.03 2.015 2.015 0 0 1 0 4.03m2.015-26.195a2.015 2.015 0 1 1 0-4.03 2.015 2.015 0 0 1 0 4.03m11.083 19.142c-3.334 0-6.046-2.711-6.046-6.044s2.712-6.046 6.046-6.046c3.333 0 6.044 2.712 6.044 6.045s-2.711 6.046-6.044 6.046M13.698 12.153c1.667 0 3.023-1.356 3.023-3.023s-1.356-3.023-3.023-3.023-3.022 1.356-3.022 3.023 1.355 3.022 3.022 3.022m72.54 10.075c2.778 0 5.038-2.26 5.038-5.038s-2.26-5.038-5.038-5.038-5.038 2.26-5.038 5.038 2.26 5.038 5.038 5.038"></path><circle r="10" fill="#1e1e1e" transform="translate(7.65 21.22)scale(.2015)"></circle><circle r="10" fill="#1e1e1e" transform="translate(68.1 3.08)scale(.2015)"></circle><circle r="10" fill="#1e1e1e" transform="translate(94.3 35.32)scale(.2015)"></circle><circle r="10" fill="#1e1e1e" transform="translate(96.31 73.61)scale(.2015)"></circle><circle r="10" fill="#1e1e1e" transform="translate(84.22 85.7)scale(.2015)"></circle><circle r="10" fill="#1e1e1e" transform="translate(23.77 87.71)scale(.2015)"></circle><circle r="10" fill="#1e1e1e" transform="translate(25.79 3.08)scale(.2015)"></circle><path fill="#1e1e1e" d="M140.545 48.26q-3.16 0-5.91-1.19t-4.79-3.33q-2.05-2.15-3.22-4.99-1.17-2.85-1.17-6.13 0-3.23 1.15-6.06 1.15-2.83 3.22-4.97 2.06-2.15 4.79-3.36t5.93-1.21q2.93 0 5.15.8t4.41 2.6q.31.23.44.52.14.3.12.59-.02.29-.13.56-.04.59-.49.94t-1.06.37q-.6.02-1.18-.41-1.49-1.29-3.12-1.95-1.64-.66-4.14-.66-2.38 0-4.46.97-2.09.98-3.69 2.65-1.6 1.68-2.5 3.9-.89 2.23-.89 4.72 0 2.58.89 4.78.9 2.2 2.5 3.9 1.6 1.7 3.69 2.63 2.08.94 4.46.94 2.07 0 3.9-.68 1.83-.69 3.47-1.93.63-.47 1.25-.41t1.05.5q.43.45.43 1.23 0 .35-.11.69-.12.33-.43.6-2.03 1.75-4.47 2.57-2.44.82-5.09.82" paint-order="stroke"></path><rect width="25.22" height="31.24" x="-12.61" y="-15.62" fill="none" rx="0" ry="0" transform="translate(138.56 33.14)"></rect><path fill="#1e1e1e" d="M155.675 47.87q-1.01 0-1.52-.86-.5-.85-.08-1.79l11.16-26.56q.51-1.25 1.71-1.25 1.29 0 1.76 1.25l11.19 26.64q.39.93-.13 1.75-.53.82-1.54.82-.51 0-.98-.29t-.7-.84l-10.1-24.8h1.13l-10.18 24.8q-.23.59-.7.86t-1.02.27m2.27-6.9 1.44-3.08h15.48l1.41 3.08Z" paint-order="stroke"></path><rect width="26.4" height="30.46" x="-13.2" y="-15.23" fill="none" rx="0" ry="0" transform="translate(167.47 33.14)"></rect><path fill="#1e1e1e" d="M186.335 47.87q-.78 0-1.31-.52-.53-.53-.53-1.31V19.25q0-.82.53-1.33.53-.51 1.31-.51h7.13q2.89 0 5.13 1.21 2.25 1.21 3.51 3.36 1.27 2.14 1.27 4.95 0 2.65-1.27 4.72-1.26 2.07-3.51 3.24-2.24 1.17-5.13 1.17h-5.3v9.98q0 .78-.51 1.31-.5.52-1.32.52m16.22 0q-.51 0-.9-.21-.39-.22-.7-.68l-7.17-11.55 3.58-1.01 6.63 10.64q.67 1.06.2 1.94-.47.87-1.64.87m-14.39-15.25h5.3q1.88 0 3.3-.72t2.24-2.03q.82-1.3.82-2.94 0-1.79-.82-3.18-.82-1.38-2.24-2.14-1.42-.76-3.3-.76h-5.3Z" paint-order="stroke"></path><rect width="20.03" height="30.46" x="-10.02" y="-15.23" fill="none" rx="0" ry="0" transform="translate(195.01 33.14)"></rect><path fill="#1e1e1e" d="M210.785 47.87q-.78 0-1.31-.52-.52-.53-.52-1.31V19.25q0-.82.52-1.33.53-.51 1.31-.51h7.14q2.88 0 5.13 1.21 2.24 1.21 3.51 3.36 1.26 2.14 1.26 4.95 0 2.65-1.26 4.72-1.27 2.07-3.51 3.24-2.25 1.17-5.13 1.17h-5.31v9.98q0 .78-.5 1.31-.51.52-1.33.52m16.22 0q-.5 0-.89-.21-.39-.22-.7-.68l-7.18-11.55 3.59-1.01 6.63 10.64q.66 1.06.19 1.94-.47.87-1.64.87m-14.39-15.25h5.31q1.87 0 3.29-.72 1.43-.72 2.25-2.03.81-1.3.81-2.94 0-1.79-.81-3.18-.82-1.38-2.25-2.14-1.42-.76-3.29-.76h-5.31Z" paint-order="stroke"></path><rect width="20.02" height="30.46" x="-10.01" y="-15.23" fill="none" rx="0" ry="0" transform="translate(219.47 33.14)"></rect><path fill="#1e1e1e" d="M253.765 47.87q-.74 0-1.29-.52-.54-.53-.54-1.31V17.41h3.66v28.63q0 .78-.51 1.31-.5.52-1.32.52m-10.57-27.1q-.74 0-1.21-.47t-.47-1.21q0-.74.47-1.21t1.21-.47h21.14q.78 0 1.25.47.46.47.46 1.21t-.46 1.21q-.47.47-1.25.47Z" paint-order="stroke"></path><rect width="24.53" height="30.46" x="-12.27" y="-15.23" fill="none" rx="0" ry="0" transform="translate(254.28 33.14)"></rect><path fill="#1e1e1e" d="M272.365 47.87q-.78 0-1.31-.52-.52-.53-.52-1.31V19.25q0-.82.52-1.33.53-.51 1.31-.51h17.9q.78 0 1.29.49t.51 1.27q0 .7-.51 1.19t-1.29.49h-16.07v9.98h11.59q.82 0 1.3.49.49.48.49 1.23 0 .74-.49 1.22-.48.49-1.3.49h-11.59v10.18h16.07q.78 0 1.29.49t.51 1.19q0 .78-.51 1.27-.51.48-1.29.48Z" paint-order="stroke"></path><rect width="21.53" height="30.46" x="-10.77" y="-15.23" fill="none" rx="0" ry="0" transform="translate(281.8 33.14)"></rect><path fill="#1e1e1e" d="M311.365 48.26q-3.16 0-5.91-1.19t-4.79-3.33q-2.05-2.15-3.22-4.99-1.17-2.85-1.17-6.13 0-3.23 1.15-6.06 1.15-2.83 3.22-4.97 2.06-2.15 4.79-3.36t5.93-1.21q2.93 0 5.15.8t4.41 2.6q.31.23.44.52.14.3.12.59-.02.29-.13.56-.04.59-.49.94t-1.06.37q-.6.02-1.18-.41-1.49-1.29-3.12-1.95-1.64-.66-4.14-.66-2.38 0-4.46.97-2.09.98-3.69 2.65-1.6 1.68-2.5 3.9-.89 2.23-.89 4.72 0 2.58.89 4.78.9 2.2 2.5 3.9 1.6 1.7 3.69 2.63 2.08.94 4.46.94 2.07 0 3.9-.68 1.83-.69 3.47-1.93.63-.47 1.25-.41t1.05.5q.43.45.43 1.23 0 .35-.11.69-.12.33-.43.6-2.03 1.75-4.47 2.57-2.44.82-5.09.82" paint-order="stroke"></path><rect width="25.22" height="31.24" x="-12.61" y="-15.62" fill="none" rx="0" ry="0" transform="translate(309.38 33.14)"></rect><path fill="#1e1e1e" d="M329.735 47.87q-.78 0-1.31-.52-.52-.53-.52-1.31V19.25q0-.82.52-1.33.53-.51 1.31-.51.82 0 1.33.51.5.51.5 1.33v11.58h18.45V19.25q0-.82.53-1.33.52-.51 1.3-.51.82 0 1.33.51.51.51.51 1.33v26.79q0 .78-.51 1.31-.51.52-1.33.52-.78 0-1.3-.52-.53-.53-.53-1.31V34.07h-18.45v11.97q0 .78-.5 1.31-.51.52-1.33.52" paint-order="stroke"></path><rect width="25.78" height="30.46" x="-12.89" y="-15.23" fill="none" rx="0" ry="0" transform="translate(341.3 33.14)"></rect><path fill="#1e1e1e" d="M386.555 48.26q-3.16 0-5.91-1.19-2.74-1.19-4.79-3.33-2.05-2.15-3.22-4.99-1.17-2.85-1.17-6.13 0-3.23 1.15-6.06 1.15-2.83 3.22-4.97 2.07-2.15 4.8-3.36t5.92-1.21q2.93 0 5.15.8t4.41 2.6q.31.23.45.52.13.3.11.59-.02.29-.13.56-.04.59-.49.94t-1.05.37q-.61.02-1.19-.41-1.48-1.29-3.12-1.95-1.64-.66-4.14-.66-2.38 0-4.46.97-2.09.98-3.69 2.65-1.6 1.68-2.49 3.9-.9 2.23-.9 4.72 0 2.58.9 4.78.89 2.2 2.49 3.9 1.6 1.7 3.69 2.63 2.08.94 4.46.94 2.07 0 3.9-.68 1.84-.69 3.47-1.93.63-.47 1.25-.41.63.06 1.06.5.42.45.42 1.23 0 .35-.11.69-.12.33-.43.6-2.03 1.75-4.47 2.57-2.43.82-5.09.82" paint-order="stroke"></path><rect width="25.22" height="31.24" x="-12.61" y="-15.62" fill="none" rx="0" ry="0" transform="translate(384.57 33.14)"></rect><path fill="#1e1e1e" d="M404.925 47.87q-.78 0-1.3-.52-.53-.53-.53-1.31V19.25q0-.82.53-1.33.52-.51 1.3-.51h7.14q2.89 0 5.13 1.21 2.24 1.21 3.51 3.36 1.27 2.14 1.27 4.95 0 2.65-1.27 4.72t-3.51 3.24q-2.24 1.17-5.13 1.17h-5.3v9.98q0 .78-.51 1.31-.51.52-1.33.52m16.23 0q-.51 0-.9-.21-.39-.22-.7-.68l-7.18-11.55 3.59-1.01 6.63 10.64q.66 1.06.19 1.94-.46.87-1.63.87m-14.39-15.25h5.3q1.87 0 3.29-.72 1.43-.72 2.25-2.03.82-1.3.82-2.94 0-1.79-.82-3.18-.82-1.38-2.25-2.14-1.42-.76-3.29-.76h-5.3Z" paint-order="stroke"></path><rect width="20.02" height="30.46" x="-10.01" y="-15.23" fill="none" rx="0" ry="0" transform="translate(413.6 33.14)"></rect><path fill="#1e1e1e" d="M440.065 48.5q-3.66 0-6.49-1.39-2.83-1.38-4.43-3.82-1.6-2.44-1.6-5.56V19.25q0-.78.53-1.31t1.31-.53q.81 0 1.32.53t.51 1.31v18.48q0 2.19 1.13 3.84 1.13 1.66 3.14 2.62 2.01.95 4.58.95 2.5 0 4.45-.95 1.95-.96 3.06-2.62 1.11-1.65 1.11-3.84V19.25q0-.78.53-1.31.52-.53 1.3-.53.82 0 1.31.53.49.53.49 1.31v18.48q0 3.12-1.56 5.56-1.56 2.44-4.33 3.82-2.77 1.39-6.36 1.39" paint-order="stroke"></path><rect width="24.77" height="31.09" x="-12.38" y="-15.54" fill="none" rx="0" ry="0" transform="translate(440.43 33.45)"></rect><path fill="#1e1e1e" d="M461.905 47.87q-.78 0-1.29-.52-.5-.53-.5-1.31V19.25q0-.82.5-1.33.51-.51 1.29-.51.86 0 1.44.67l17.63 23.36V19.25q0-.82.53-1.33.53-.51 1.31-.51t1.28.51q.51.51.51 1.33v26.79q0 .78-.51 1.31-.5.52-1.28.52-.39 0-.78-.15-.39-.16-.63-.47l-17.67-23.36v22.15q0 .78-.5 1.31-.51.52-1.33.52" paint-order="stroke"></path><rect width="24.49" height="30.46" x="-12.24" y="-15.23" fill="none" rx="0" ry="0" transform="translate(472.86 33.14)"></rect><path fill="#1e1e1e" d="M506.055 48.26q-3.16 0-5.91-1.19t-4.8-3.33q-2.04-2.15-3.21-4.99-1.17-2.85-1.17-6.13 0-3.23 1.15-6.06 1.15-2.83 3.21-4.97 2.07-2.15 4.8-3.36t5.93-1.21q2.92 0 5.15.8 2.22.8 4.4 2.6.32.23.45.52.14.3.12.59-.02.29-.14.56-.04.59-.48.94-.45.35-1.06.37-.6.02-1.19-.41-1.48-1.29-3.12-1.95-1.63-.66-4.13-.66-2.38 0-4.47.97-2.08.98-3.68 2.65-1.6 1.68-2.5 3.9-.89 2.23-.89 4.72 0 2.58.89 4.78.9 2.2 2.5 3.9 1.6 1.7 3.68 2.63 2.09.94 4.47.94 2.07 0 3.9-.68 1.83-.69 3.47-1.93.62-.47 1.25-.41.62.06 1.05.5.43.45.43 1.23 0 .35-.12.69-.11.33-.43.6-2.02 1.75-4.46 2.57-2.44.82-5.09.82" paint-order="stroke"></path><rect width="25.22" height="31.24" x="-12.61" y="-15.62" fill="none" rx="0" ry="0" transform="translate(504.07 33.14)"></rect><path fill="#1e1e1e" d="M524.425 47.87q-.78 0-1.31-.52-.52-.53-.52-1.31V19.25q0-.82.52-1.33.53-.51 1.31-.51.82 0 1.32.51.51.51.51 1.33v11.58h18.45V19.25q0-.82.52-1.33.53-.51 1.31-.51.82 0 1.33.51.5.51.5 1.33v26.79q0 .78-.5 1.31-.51.52-1.33.52-.78 0-1.31-.52-.52-.53-.52-1.31V34.07h-18.45v11.97q0 .78-.51 1.31-.5.52-1.32.52" paint-order="stroke"></path><rect width="25.77" height="30.46" x="-12.88" y="-15.23" fill="none" rx="0" ry="0" transform="translate(535.98 33.14)"></rect><path fill="#1e1e1e" d="M134.275 81.79q-2.03 0-3.79-.78-1.76-.77-3.1-2.16-1.34-1.39-2.09-3.2-.75-1.81-.75-3.89 0-2.05.74-3.86t2.07-3.19q1.34-1.37 3.1-2.16 1.77-.79 3.82-.79 1.8 0 3.27.53 1.48.52 2.85 1.67.23.18.26.42.04.23-.06.45-.1.21-.3.31-.05.2-.25.3-.2.1-.46.07-.26-.02-.51-.22-.98-.85-2.13-1.26-1.15-.42-2.67-.42-1.63 0-3.04.65-1.41.65-2.49 1.78-1.07 1.12-1.69 2.6-.61 1.47-.61 3.12 0 1.7.61 3.18.62 1.47 1.69 2.6 1.08 1.12 2.49 1.76 1.41.64 3.04.64 1.37 0 2.6-.45 1.22-.45 2.32-1.3.3-.25.64-.2.34.05.59.3.25.25.25.65 0 .2-.07.36-.06.16-.21.34-1.27 1.17-2.85 1.66-1.57.49-3.27.49" paint-order="stroke"></path><rect width="16.14" height="20.03" x="-8.07" y="-10.02" fill="none" rx="0" ry="0" transform="translate(133.11 72.28)"></rect><path fill="#1e1e1e" d="M149.675 81.66q-2 0-3.58-.9-1.57-.9-2.47-2.47-.9-1.58-.9-3.58 0-2.02.9-3.6.9-1.57 2.47-2.47 1.58-.9 3.58-.9t3.56.9q1.56.9 2.46 2.47.9 1.58.93 3.6 0 2-.92 3.58-.91 1.57-2.47 2.47-1.56.9-3.56.9m0-1.75q1.45 0 2.6-.67 1.15-.68 1.8-1.85.65-1.18.65-2.68 0-1.5-.65-2.68-.65-1.19-1.8-1.87-1.15-.67-2.6-.67-1.45 0-2.6.67-1.15.68-1.82 1.87-.66 1.18-.66 2.68 0 1.5.66 2.68.67 1.17 1.82 1.85 1.15.67 2.6.67" paint-order="stroke"></path><rect width="13.9" height="13.92" x="-6.95" y="-6.96" fill="none" rx="0" ry="0" transform="translate(150.18 75.2)"></rect><path fill="#1e1e1e" d="M166.595 81.66q-1.97 0-3.55-.91-1.57-.91-2.49-2.49-.91-1.57-.91-3.57 0-1.98.89-3.55.89-1.58 2.41-2.49 1.53-.91 3.45-.91 1.68 0 3.03.71 1.35.71 2.17 1.89v-7.35q0-.45.28-.71.27-.27.7-.27.42 0 .7.27.27.26.27.71v11.8q-.05 1.95-.96 3.51-.91 1.56-2.48 2.46-1.56.9-3.51.9m0-1.75q1.45 0 2.59-.68 1.14-.69 1.8-1.87.66-1.17.66-2.67 0-1.48-.66-2.66-.66-1.19-1.8-1.87-1.14-.67-2.59-.67-1.42 0-2.57.67-1.15.68-1.83 1.87-.67 1.18-.67 2.66 0 1.5.67 2.67.68 1.18 1.83 1.87 1.15.68 2.57.68" paint-order="stroke"></path><rect width="13.9" height="19.65" x="-6.95" y="-9.82" fill="none" rx="0" ry="0" transform="translate(167.1 72.33)"></rect><path fill="#1e1e1e" d="M184.245 81.66q-2.02 0-3.59-.88-1.56-.89-2.45-2.47-.88-1.57-.88-3.6 0-2.05.83-3.61.84-1.56 2.32-2.46 1.47-.9 3.4-.9 1.9 0 3.31.86 1.41.86 2.19 2.39.77 1.52.77 3.47 0 .4-.25.64t-.65.24h-10.62v-1.6h10.82l-1.07.77q.02-1.45-.53-2.6-.55-1.15-1.56-1.8-1.01-.65-2.41-.65-1.43 0-2.5.68-1.08.67-1.67 1.86-.58 1.19-.58 2.71 0 1.53.66 2.7.66 1.18 1.81 1.85 1.15.68 2.65.68.9 0 1.81-.31.92-.32 1.47-.79.27-.23.62-.24.35-.01.6.19.33.3.34.65.01.35-.29.6-.82.7-2.1 1.16-1.27.46-2.45.46" paint-order="stroke"></path><rect width="12.82" height="13.92" x="-6.41" y="-6.96" fill="none" rx="0" ry="0" transform="translate(184.24 75.2)"></rect><path fill="#1e1e1e" d="M193.845 81.94q-.6 0-1.02-.43-.43-.42-.43-1.02 0-.63.44-1.05.44-.43 1.01-.43.6 0 1.03.44.42.44.42 1.04 0 .57-.41 1.01-.41.44-1.04.44" paint-order="stroke"></path><rect width="2.9" height="2.93" x="-1.45" y="-1.47" fill="none" rx="0" ry="0" transform="translate(194.34 80.97)"></rect><path fill="#1e1e1e" d="M215.145 81.79q-2.02 0-3.79-.78-1.76-.77-3.1-2.16-1.33-1.39-2.08-3.2-.75-1.81-.75-3.89 0-2.05.73-3.86.74-1.81 2.08-3.19 1.34-1.37 3.1-2.16t3.81-.79q1.8 0 3.28.53 1.47.52 2.85 1.67.22.18.26.42.04.23-.06.45-.1.21-.3.31-.05.2-.25.3-.2.1-.47.07-.26-.02-.51-.22-.97-.85-2.12-1.26-1.15-.42-2.68-.42-1.62 0-3.04.65-1.41.65-2.48 1.78-1.08 1.12-1.69 2.6-.61 1.47-.61 3.12 0 1.7.61 3.18.61 1.47 1.69 2.6 1.07 1.12 2.48 1.76 1.42.64 3.04.64 1.38 0 2.6-.45 1.23-.45 2.33-1.3.3-.25.63-.2.34.05.59.3.25.25.25.65 0 .2-.06.36-.06.16-.21.34-1.28 1.17-2.85 1.66-1.58.49-3.28.49" paint-order="stroke"></path><rect width="16.14" height="20.03" x="-8.07" y="-10.02" fill="none" rx="0" ry="0" transform="translate(214 72.28)"></rect><path fill="#1e1e1e" d="M226.125 73.11q.07-1.55.81-2.77.74-1.23 1.92-1.93 1.19-.7 2.64-.7 1.15 0 1.78.33.62.32.47.95-.1.37-.34.5-.23.12-.57.1-.34-.03-.76-.05-1.4-.13-2.49.29-1.09.41-1.73 1.26-.63.85-.63 2.02Zm.15 8.43q-.45 0-.7-.25-.25-.25-.25-.7V68.81q0-.45.25-.7.25-.25.7-.25.45 0 .7.25.25.25.25.7v11.78q0 .45-.25.7-.25.25-.7.25" paint-order="stroke"></path><rect width="8.5" height="13.83" x="-4.25" y="-6.92" fill="none" rx="0" ry="0" transform="translate(230.08 75.13)"></rect><path fill="#1e1e1e" d="M241.975 81.66q-2.03 0-3.59-.88-1.56-.89-2.45-2.47-.89-1.57-.89-3.6 0-2.05.84-3.61t2.31-2.46q1.48-.9 3.4-.9 1.9 0 3.31.86 1.42.86 2.19 2.39.78 1.52.78 3.47 0 .4-.25.64t-.65.24h-10.63v-1.6h10.83l-1.08.77q.03-1.45-.52-2.6-.55-1.15-1.57-1.8-1.01-.65-2.41-.65-1.42 0-2.5.68-1.07.67-1.66 1.86-.59 1.19-.59 2.71 0 1.53.66 2.7.67 1.18 1.82 1.85 1.15.68 2.65.68.9 0 1.81-.31.91-.32 1.46-.79.28-.23.63-.24.35-.01.6.19.32.3.33.65.02.35-.28.6-.83.7-2.1 1.16-1.28.46-2.45.46" paint-order="stroke"></path><rect width="12.83" height="13.92" x="-6.42" y="-6.96" fill="none" rx="0" ry="0" transform="translate(241.96 75.2)"></rect><path fill="#1e1e1e" d="M256.645 81.66q-1.92 0-3.45-.91-1.52-.91-2.41-2.49-.89-1.57-.89-3.55 0-2 .91-3.57.92-1.58 2.49-2.49 1.58-.91 3.55-.91 1.98 0 3.54.91t2.47 2.49q.92 1.57.94 3.57l-.77.6q0 1.8-.84 3.24-.84 1.44-2.28 2.28-1.43.83-3.26.83m.2-1.75q1.45 0 2.59-.67 1.14-.68 1.8-1.86.66-1.19.66-2.67 0-1.5-.66-2.67-.66-1.18-1.8-1.86-1.14-.69-2.59-.69-1.42 0-2.57.69-1.15.68-1.83 1.86-.67 1.17-.67 2.67 0 1.48.67 2.67.68 1.18 1.83 1.86 1.15.67 2.57.67m5.98 1.63q-.43 0-.7-.26-.28-.27-.28-.69v-4.28l.48-1.97 1.47.37v5.88q0 .42-.27.69-.28.26-.7.26" paint-order="stroke"></path><rect width="13.9" height="13.92" x="-6.95" y="-6.96" fill="none" rx="0" ry="0" transform="translate(257.35 75.2)"></rect><path fill="#1e1e1e" d="M272.895 81.54q-1.32 0-2.36-.63-1.04-.62-1.64-1.71-.6-1.09-.6-2.49V64.49q0-.43.26-.7.27-.28.69-.28.43 0 .7.28.28.27.28.7v12.22q0 1.28.75 2.09.75.81 1.92.81h.68q.4 0 .65.28.25.27.25.7 0 .42-.3.69-.3.26-.75.26Zm-6.22-11.5q-.38 0-.63-.24t-.25-.59q0-.37.25-.61t.63-.24h6.37q.38 0 .63.24t.25.61q0 .35-.25.59t-.63.24Z" paint-order="stroke"></path><rect width="8.68" height="18.03" x="-4.34" y="-9.02" fill="none" rx="0" ry="0" transform="translate(270.63 73.03)"></rect><path fill="#1e1e1e" d="M283.795 81.66q-2.02 0-3.59-.88-1.56-.89-2.45-2.47-.88-1.57-.88-3.6 0-2.05.83-3.61.84-1.56 2.32-2.46 1.47-.9 3.4-.9 1.9 0 3.31.86 1.41.86 2.19 2.39.77 1.52.77 3.47 0 .4-.25.64t-.65.24h-10.62v-1.6h10.82l-1.07.77q.02-1.45-.53-2.6-.55-1.15-1.56-1.8-1.01-.65-2.41-.65-1.43 0-2.5.68-1.08.67-1.67 1.86-.58 1.19-.58 2.71 0 1.53.66 2.7.66 1.18 1.81 1.85 1.15.68 2.65.68.9 0 1.81-.31.92-.32 1.47-.79.27-.23.62-.24.35-.01.6.19.33.3.34.65.01.35-.29.6-.82.7-2.1 1.16-1.27.46-2.45.46" paint-order="stroke"></path><rect width="12.82" height="13.92" x="-6.41" y="-6.96" fill="none" rx="0" ry="0" transform="translate(283.79 75.2)"></rect><path fill="#1e1e1e" d="M293.395 81.94q-.6 0-1.02-.43-.43-.42-.43-1.02 0-.63.44-1.05.44-.43 1.01-.43.6 0 1.03.44.42.44.42 1.04 0 .57-.41 1.01-.41.44-1.04.44" paint-order="stroke"></path><rect width="2.9" height="2.93" x="-1.45" y="-1.47" fill="none" rx="0" ry="0" transform="translate(293.9 80.97)"></rect><path fill="#1e1e1e" d="M314.695 81.79q-2.02 0-3.79-.78-1.76-.77-3.1-2.16-1.33-1.39-2.08-3.2-.75-1.81-.75-3.89 0-2.05.73-3.86.74-1.81 2.08-3.19 1.34-1.37 3.1-2.16t3.81-.79q1.8 0 3.28.53 1.47.52 2.85 1.67.22.18.26.42.04.23-.06.45-.1.21-.3.31-.05.2-.25.3-.2.1-.47.07-.26-.02-.51-.22-.97-.85-2.12-1.26-1.15-.42-2.68-.42-1.62 0-3.04.65-1.41.65-2.48 1.78-1.08 1.12-1.69 2.6-.61 1.47-.61 3.12 0 1.7.61 3.18.61 1.47 1.69 2.6 1.07 1.12 2.48 1.76 1.42.64 3.04.64 1.38 0 2.6-.45 1.23-.45 2.33-1.3.3-.25.63-.2.34.05.59.3.25.25.25.65 0 .2-.06.36-.06.16-.21.34-1.28 1.17-2.85 1.66-1.58.49-3.28.49" paint-order="stroke"></path><rect width="16.14" height="20.03" x="-8.07" y="-10.02" fill="none" rx="0" ry="0" transform="translate(313.54 72.28)"></rect><path fill="#1e1e1e" d="M330.095 81.66q-2 0-3.57-.9-1.58-.9-2.48-2.47-.9-1.58-.9-3.58 0-2.02.9-3.6.9-1.57 2.48-2.47 1.57-.9 3.57-.9 2 0 3.56.9 1.57.9 2.47 2.47.9 1.58.92 3.6 0 2-.91 3.58-.91 1.57-2.48 2.47-1.56.9-3.56.9m0-1.75q1.45 0 2.6-.67 1.15-.68 1.8-1.85.65-1.18.65-2.68 0-1.5-.65-2.68-.65-1.19-1.8-1.87-1.15-.67-2.6-.67-1.45 0-2.6.67-1.15.68-1.81 1.87-.66 1.18-.66 2.68 0 1.5.66 2.68.66 1.17 1.81 1.85 1.15.67 2.6.67" paint-order="stroke"></path><rect width="13.9" height="13.92" x="-6.95" y="-6.96" fill="none" rx="0" ry="0" transform="translate(330.6 75.2)"></rect><path fill="#1e1e1e" d="M352.525 81.54q-.43 0-.7-.28-.28-.27-.28-.67v-6.5q0-1.55-.59-2.55-.58-1-1.6-1.5-1.01-.5-2.28-.5-1.23 0-2.22.47-.98.48-1.56 1.3-.57.83-.57 1.88h-1.38q.05-1.58.85-2.81.8-1.24 2.13-1.95 1.32-.72 2.95-.72 1.77 0 3.17.74t2.21 2.16q.82 1.43.82 3.48v6.5q0 .4-.28.67-.27.28-.67.28m-10.75 0q-.45 0-.72-.26-.26-.27-.26-.69V68.84q0-.45.26-.71.27-.27.72-.27.42 0 .68.27.27.26.27.71v11.75q0 .42-.27.69-.26.26-.68.26" paint-order="stroke"></path><rect width="12.68" height="13.83" x="-6.34" y="-6.92" fill="none" rx="0" ry="0" transform="translate(347.63 75.13)"></rect><path fill="#1e1e1e" d="M369.445 81.54q-.42 0-.7-.28-.27-.27-.27-.67v-6.5q0-1.55-.59-2.55-.59-1-1.6-1.5-1.01-.5-2.29-.5-1.22 0-2.21.47-.99.48-1.56 1.3-.58.83-.58 1.88h-1.37q.05-1.58.85-2.81.8-1.24 2.12-1.95 1.33-.72 2.95-.72 1.78 0 3.18.74 1.4.74 2.21 2.16.81 1.43.81 3.48v6.5q0 .4-.27.67-.28.28-.68.28m-10.75 0q-.45 0-.71-.26-.26-.27-.26-.69V68.84q0-.45.26-.71.26-.27.71-.27.43 0 .69.27.26.26.26.71v11.75q0 .42-.26.69-.26.26-.69.26" paint-order="stroke"></path><rect width="12.67" height="13.83" x="-6.33" y="-6.92" fill="none" rx="0" ry="0" transform="translate(364.56 75.13)"></rect><path fill="#1e1e1e" d="M380.845 81.66q-2.02 0-3.59-.88-1.56-.89-2.45-2.47-.88-1.57-.88-3.6 0-2.05.83-3.61.84-1.56 2.32-2.46 1.47-.9 3.4-.9 1.9 0 3.31.86 1.41.86 2.19 2.39.77 1.52.77 3.47 0 .4-.25.64t-.65.24h-10.62v-1.6h10.82l-1.07.77q.02-1.45-.53-2.6-.55-1.15-1.56-1.8-1.01-.65-2.41-.65-1.43 0-2.5.68-1.08.67-1.67 1.86-.58 1.19-.58 2.71 0 1.53.66 2.7.66 1.18 1.81 1.85 1.15.68 2.65.68.9 0 1.81-.31.92-.32 1.47-.79.27-.23.62-.24.35-.01.6.19.33.3.34.65.01.35-.29.6-.82.7-2.1 1.16-1.27.46-2.45.46" paint-order="stroke"></path><rect width="12.82" height="13.92" x="-6.41" y="-6.96" fill="none" rx="0" ry="0" transform="translate(380.83 75.2)"></rect><path fill="#1e1e1e" d="M395.595 81.66q-1.97 0-3.51-.91-1.54-.91-2.43-2.49-.88-1.57-.88-3.55 0-2 .85-3.57.85-1.58 2.32-2.49 1.48-.91 3.4-.91 1.53 0 2.81.6 1.29.6 2.27 1.8.27.3.2.64-.08.33-.43.58-.27.2-.61.14-.34-.06-.59-.36-1.45-1.65-3.65-1.65-1.4 0-2.46.67-1.06.68-1.65 1.85-.59 1.18-.59 2.7 0 1.5.63 2.68.62 1.17 1.75 1.85 1.12.67 2.57.67.98 0 1.79-.26t1.44-.81q.3-.25.62-.28.33-.02.6.2.3.28.34.63.04.35-.24.6-1.82 1.67-4.55 1.67" paint-order="stroke"></path><rect width="11.89" height="13.92" x="-5.95" y="-6.96" fill="none" rx="0" ry="0" transform="translate(395.22 75.2)"></rect><path fill="#1e1e1e" d="M409.725 81.54q-1.33 0-2.37-.63-1.03-.62-1.63-1.71-.6-1.09-.6-2.49V64.49q0-.43.26-.7.26-.28.69-.28.42 0 .7.28.27.27.27.7v12.22q0 1.28.75 2.09.75.81 1.93.81h.67q.4 0 .65.28.25.27.25.7 0 .42-.3.69-.3.26-.75.26Zm-6.23-11.5q-.37 0-.62-.24t-.25-.59q0-.37.25-.61t.62-.24h6.38q.37 0 .62.24t.25.61q0 .35-.25.59t-.62.24Z" paint-order="stroke"></path><rect width="8.67" height="18.03" x="-4.33" y="-9.02" fill="none" rx="0" ry="0" transform="translate(407.46 73.03)"></rect><path fill="#1e1e1e" d="M414.875 81.94q-.6 0-1.03-.43-.42-.42-.42-1.02 0-.63.43-1.05.44-.43 1.02-.43.6 0 1.02.44.43.44.43 1.04 0 .57-.42 1.01-.41.44-1.03.44" paint-order="stroke"></path><rect width="2.9" height="2.93" x="-1.45" y="-1.47" fill="none" rx="0" ry="0" transform="translate(415.38 80.97)"></rect></svg></svg>